<?xml version="1.0" encoding="UTF-8" standalone="no"?>
<svg
   xmlns:dc="http://purl.org/dc/elements/1.1/"
   xmlns:cc="http://creativecommons.org/ns#"
   xmlns:rdf="http://www.w3.org/1999/02/22-rdf-syntax-ns#"
   xmlns:svg="http://www.w3.org/2000/svg"
   xmlns="http://www.w3.org/2000/svg"
   xmlns:sodipodi="http://sodipodi.sourceforge.net/DTD/sodipodi-0.dtd"
   xmlns:inkscape="http://www.inkscape.org/namespaces/inkscape"
   inkscape:export-ydpi="96"
   inkscape:export-xdpi="96"
   inkscape:export-filename="C:\Users\aweso\Documents\Source\Python\Logic\images\gates\norRaw.png"
   sodipodi:docname="norRaw.svg"
   inkscape:version="1.0 (4035a4fb49, 2020-05-01)"
   id="svg8"
   version="1.1"
   viewBox="0 0 13.229167 13.229167"
   height="13.229167mm"
   width="13.229167mm">
  <defs
     id="defs2" />
  <sodipodi:namedview
     inkscape:document-rotation="0"
     inkscape:window-maximized="1"
     inkscape:window-y="-8"
     inkscape:window-x="-8"
     inkscape:window-height="837"
     inkscape:window-width="1600"
     showgrid="true"
     inkscape:current-layer="layer1"
     inkscape:document-units="mm"
     inkscape:cy="25.964852"
     inkscape:cx="27.445249"
     inkscape:zoom="31.999999"
     inkscape:pageshadow="2"
     inkscape:pageopacity="0.0"
     borderopacity="1.0"
     bordercolor="#666666"
     pagecolor="#ffffff"
     id="base">
    <inkscape:grid
       originy="-3.9687433"
       originx="-1.3229171"
       id="grid4524"
       type="xygrid" />
  </sodipodi:namedview>
  <metadata
     id="metadata5">
    <rdf:RDF>
      <cc:Work
         rdf:about="">
        <dc:format>image/svg+xml</dc:format>
        <dc:type
           rdf:resource="http://purl.org/dc/dcmitype/StillImage" />
        <dc:title></dc:title>
      </cc:Work>
    </rdf:RDF>
  </metadata>
  <g
     transform="translate(-56.507439,-132.39137)"
     id="layer1"
     inkscape:groupmode="layer"
     inkscape:label="Layer 1">
    <rect
       style="fill:#ffffff;fill-opacity:1;stroke-width:0.04070995"
       y="132.39137"
       x="56.507439"
       height="13.229167"
       width="13.229167"
       id="rect3713" />
    <path
       sodipodi:nodetypes="cccccc"
       inkscape:connector-curvature="0"
       id="path4522"
       d="m 57.830355,133.71429 c 1.322917,3.96874 1.322917,6.61457 0,10.58333 l 1.322917,-1e-5 c 1.322917,0 9.260416,1e-5 9.260416,-5.29165 0,-5.29167 -7.937499,-5.29168 -9.260416,-5.29168 z"
       style="fill:none;stroke:#000000;stroke-width:0.5291667;stroke-linecap:butt;stroke-linejoin:miter;stroke-miterlimit:4;stroke-dasharray:none;stroke-opacity:1" />
    <path
       sodipodi:nodetypes="cc"
       inkscape:connector-curvature="0"
       id="path4526"
       d="m 58.359522,136.36011 -1.852083,1e-5"
       style="fill:none;stroke:#000000;stroke-width:0.5291667;stroke-linecap:butt;stroke-linejoin:miter;stroke-miterlimit:4;stroke-dasharray:none;stroke-opacity:1" />
    <path
       sodipodi:nodetypes="cc"
       inkscape:connector-curvature="0"
       id="path4528"
       d="m 58.359522,141.65178 -1.852083,1e-5"
       style="fill:none;stroke:#000000;stroke-width:0.5291667;stroke-linecap:butt;stroke-linejoin:miter;stroke-miterlimit:4;stroke-dasharray:none;stroke-opacity:1" />
    <path
       sodipodi:nodetypes="cc"
       inkscape:connector-curvature="0"
       id="path4530"
       d="m 68.413688,139.00595 h 1.322917"
       style="fill:none;stroke:#000000;stroke-width:0.52916667;stroke-linecap:butt;stroke-linejoin:miter;stroke-miterlimit:4;stroke-dasharray:none;stroke-opacity:1" />
    <path
       inkscape:export-ydpi="96"
       inkscape:export-xdpi="96"
       transform="matrix(0.26458333,0,0,0.26458333,56.507439,132.39137)"
       inkscape:connector-curvature="0"
       id="path13"
       d="M 6.4534015,43.903926 C 6.4790682,43.836732 6.6615282,43.244795 6.858868,42.588511 10.377362,30.887227 10.688181,22.279158 7.9822786,11.475812 7.623033,10.041519 7.0366471,7.9493124 6.6259713,6.6365494 L 6.4531537,6.0841222 h 3.5296819 c 4.7607334,0 7.5189814,0.1737469 11.2207124,0.7068125 7.125412,1.0260904 12.674131,3.0126693 16.596064,5.9418023 1.117461,0.834587 2.734755,2.468444 3.482241,3.517905 1.958583,2.749826 2.843428,6.08892 2.616974,9.875539 -0.501736,8.389725 -7.069182,13.995311 -19.336521,16.504515 -4.277543,0.874944 -8.147143,1.22851 -14.6281933,1.336583 -2.9828513,0.04974 -3.520174,0.03996 -3.4807112,-0.06335 z"
       style="fill:#c8c8c8;fill-opacity:1;stroke-width:0.17677671;stroke-miterlimit:4;stroke-dasharray:none" />
    <circle
       r="0.79374999"
       cy="139.00597"
       cx="68.413689"
       id="path837"
       style="fill:#c8c8c8;stroke:#000000;stroke-width:0.529167;stroke-linecap:square" />
  </g>
</svg>
