<?xml version="1.0" encoding="UTF-8" standalone="no"?>
<!-- Created with Inkscape (http://www.inkscape.org/) -->

<svg
   xmlns:dc="http://purl.org/dc/elements/1.1/"
   xmlns:cc="http://creativecommons.org/ns#"
   xmlns:rdf="http://www.w3.org/1999/02/22-rdf-syntax-ns#"
   xmlns:svg="http://www.w3.org/2000/svg"
   xmlns="http://www.w3.org/2000/svg"
   xmlns:sodipodi="http://sodipodi.sourceforge.net/DTD/sodipodi-0.dtd"
   xmlns:inkscape="http://www.inkscape.org/namespaces/inkscape"
   width="13.229167mm"
   height="13.229167mm"
   viewBox="0 0 13.229167 13.229167"
   version="1.1"
   id="svg8"
   inkscape:version="0.92.4 (5da689c313, 2019-01-14)"
   sodipodi:docname="orRaw.svg"
   inkscape:export-filename="C:\Users\aweso\Documents\Python\Logic\images\gates\orRaw.png"
   inkscape:export-xdpi="96"
   inkscape:export-ydpi="96">
  <defs
     id="defs2" />
  <sodipodi:namedview
     id="base"
     pagecolor="#ffffff"
     bordercolor="#666666"
     borderopacity="1.0"
     inkscape:pageopacity="0.0"
     inkscape:pageshadow="2"
     inkscape:zoom="11.313708"
     inkscape:cx="-6.4700825"
     inkscape:cy="27.882232"
     inkscape:document-units="mm"
     inkscape:current-layer="layer1"
     showgrid="true"
     inkscape:window-width="1600"
     inkscape:window-height="837"
     inkscape:window-x="-8"
     inkscape:window-y="-8"
     inkscape:window-maximized="1">
    <inkscape:grid
       type="xygrid"
       id="grid4524"
       originx="-1.3229171"
       originy="-3.9687433" />
  </sodipodi:namedview>
  <metadata
     id="metadata5">
    <rdf:RDF>
      <cc:Work
         rdf:about="">
        <dc:format>image/svg+xml</dc:format>
        <dc:type
           rdf:resource="http://purl.org/dc/dcmitype/StillImage" />
        <dc:title />
      </cc:Work>
    </rdf:RDF>
  </metadata>
  <g
     inkscape:label="Layer 1"
     inkscape:groupmode="layer"
     id="layer1"
     transform="translate(-56.507439,-132.39137)">
    <rect
       id="rect3713"
       width="13.229167"
       height="13.229167"
       x="56.507439"
       y="132.39137"
       style="fill:#ffffff;fill-opacity:1;stroke-width:0.04070995" />
    <path
       style="fill:none;stroke:#000000;stroke-width:0.5291667;stroke-linecap:butt;stroke-linejoin:miter;stroke-miterlimit:4;stroke-dasharray:none;stroke-opacity:1"
       d="m 57.830355,133.71429 c 1.322917,3.96874 1.322917,6.61457 0,10.58333 l 1.322917,-1e-5 c 1.322917,0 9.260416,1e-5 9.260416,-5.29165 0,-5.29167 -7.937499,-5.29168 -9.260416,-5.29168 z"
       id="path4522"
       inkscape:connector-curvature="0"
       sodipodi:nodetypes="cccccc" />
    <path
       style="fill:none;stroke:#000000;stroke-width:0.5291667;stroke-linecap:butt;stroke-linejoin:miter;stroke-miterlimit:4;stroke-dasharray:none;stroke-opacity:1"
       d="m 58.359522,136.36011 -1.852083,1e-5"
       id="path4526"
       inkscape:connector-curvature="0"
       sodipodi:nodetypes="cc" />
    <path
       style="fill:none;stroke:#000000;stroke-width:0.5291667;stroke-linecap:butt;stroke-linejoin:miter;stroke-miterlimit:4;stroke-dasharray:none;stroke-opacity:1"
       d="m 58.359522,141.65178 -1.852083,1e-5"
       id="path4528"
       inkscape:connector-curvature="0"
       sodipodi:nodetypes="cc" />
    <path
       style="fill:none;stroke:#000000;stroke-width:0.52916667;stroke-linecap:butt;stroke-linejoin:miter;stroke-miterlimit:4;stroke-dasharray:none;stroke-opacity:1"
       d="m 68.413688,139.00595 h 1.322917"
       id="path4530"
       inkscape:connector-curvature="0"
       sodipodi:nodetypes="cc" />
    <path
       style="fill:#c8c8c8;fill-opacity:1;stroke-width:0.17677671;stroke-miterlimit:4;stroke-dasharray:none"
       d="M 6.4534015,43.903926 C 6.4790682,43.836732 6.6615282,43.244795 6.858868,42.588511 10.377362,30.887227 10.688181,22.279158 7.9822786,11.475812 7.623033,10.041519 7.0366471,7.9493124 6.6259713,6.6365494 L 6.4531537,6.0841222 h 3.5296819 c 4.7607334,0 7.5189814,0.1737469 11.2207124,0.7068125 7.125412,1.0260904 12.674131,3.0126693 16.596064,5.9418023 1.117461,0.834587 2.734755,2.468444 3.482241,3.517905 1.958583,2.749826 2.843428,6.08892 2.616974,9.875539 -0.501736,8.389725 -7.069182,13.995311 -19.336521,16.504515 -4.277543,0.874944 -8.147143,1.22851 -14.6281933,1.336583 -2.9828513,0.04974 -3.520174,0.03996 -3.4807112,-0.06335 z"
       id="path13"
       inkscape:connector-curvature="0"
       transform="matrix(0.26458333,0,0,0.26458333,56.507439,132.39137)"
       inkscape:export-xdpi="96"
       inkscape:export-ydpi="96" />
  </g>
</svg>
