<?xml version="1.0" encoding="UTF-8" standalone="no"?>
<svg
   xmlns:dc="http://purl.org/dc/elements/1.1/"
   xmlns:cc="http://creativecommons.org/ns#"
   xmlns:rdf="http://www.w3.org/1999/02/22-rdf-syntax-ns#"
   xmlns:svg="http://www.w3.org/2000/svg"
   xmlns="http://www.w3.org/2000/svg"
   xmlns:sodipodi="http://sodipodi.sourceforge.net/DTD/sodipodi-0.dtd"
   xmlns:inkscape="http://www.inkscape.org/namespaces/inkscape"
   inkscape:export-ydpi="96"
   inkscape:export-xdpi="96"
   inkscape:export-filename="C:\Users\aweso\Documents\Source\Python\Logic\images\gates\xnorRaw.png"
   sodipodi:docname="xnorRaw.svg"
   inkscape:version="1.0 (4035a4fb49, 2020-05-01)"
   id="svg8"
   version="1.1"
   viewBox="0 0 13.229167 13.229167"
   height="13.229167mm"
   width="13.229167mm">
  <defs
     id="defs2" />
  <sodipodi:namedview
     inkscape:document-rotation="0"
     inkscape:window-maximized="1"
     inkscape:window-y="-8"
     inkscape:window-x="-8"
     inkscape:window-height="1017"
     inkscape:window-width="1920"
     showgrid="true"
     inkscape:current-layer="layer1"
     inkscape:document-units="mm"
     inkscape:cy="23.898352"
     inkscape:cx="37.056104"
     inkscape:zoom="31.999998"
     inkscape:pageshadow="2"
     inkscape:pageopacity="0.0"
     borderopacity="1.0"
     bordercolor="#666666"
     pagecolor="#ffffff"
     id="base">
    <inkscape:grid
       originy="-3.9687433"
       originx="-1.3229171"
       id="grid4524"
       type="xygrid" />
  </sodipodi:namedview>
  <metadata
     id="metadata5">
    <rdf:RDF>
      <cc:Work
         rdf:about="">
        <dc:format>image/svg+xml</dc:format>
        <dc:type
           rdf:resource="http://purl.org/dc/dcmitype/StillImage" />
        <dc:title></dc:title>
      </cc:Work>
    </rdf:RDF>
  </metadata>
  <g
     transform="translate(-56.507439,-132.39137)"
     id="layer1"
     inkscape:groupmode="layer"
     inkscape:label="Layer 1">
    <rect
       style="fill:#ffffff;fill-opacity:1;stroke-width:0.04070995"
       y="132.39137"
       x="56.507439"
       height="13.229167"
       width="13.229167"
       id="rect3713" />
    <path
       sodipodi:nodetypes="cccc"
       inkscape:connector-curvature="0"
       id="path4522"
       d="m 59.153272,133.71428 c 1.322917,3.96874 1.322917,6.61457 0,10.58333 3.96875,0 9.064025,-1.75194 9.260416,-5.29165 -0.46256,-4.65415 -5.291666,-5.29168 -9.260416,-5.29168 z"
       style="fill:none;stroke:#000000;stroke-width:0.5291667;stroke-linecap:butt;stroke-linejoin:miter;stroke-miterlimit:4;stroke-dasharray:none;stroke-opacity:1" />
    <path
       sodipodi:nodetypes="cc"
       inkscape:connector-curvature="0"
       id="path4526"
       d="m 58.359522,136.36011 -1.852083,1e-5"
       style="fill:none;stroke:#000000;stroke-width:0.5291667;stroke-linecap:butt;stroke-linejoin:miter;stroke-miterlimit:4;stroke-dasharray:none;stroke-opacity:1" />
    <path
       sodipodi:nodetypes="cc"
       inkscape:connector-curvature="0"
       id="path4528"
       d="m 58.359522,141.65178 -1.852083,1e-5"
       style="fill:none;stroke:#000000;stroke-width:0.5291667;stroke-linecap:butt;stroke-linejoin:miter;stroke-miterlimit:4;stroke-dasharray:none;stroke-opacity:1" />
    <path
       sodipodi:nodetypes="cc"
       inkscape:connector-curvature="0"
       id="path4530"
       d="m 68.413688,139.00595 h 1.322917"
       style="fill:none;stroke:#000000;stroke-width:0.52916667;stroke-linecap:butt;stroke-linejoin:miter;stroke-miterlimit:4;stroke-dasharray:none;stroke-opacity:1" />
    <path
       sodipodi:nodetypes="cc"
       inkscape:connector-curvature="0"
       id="path847"
       d="m 57.830355,133.71428 c 1.322917,3.96875 1.322917,6.61458 0,10.58333"
       style="fill:none;stroke:#000000;stroke-width:0.5291667;stroke-linecap:square;stroke-linejoin:miter;stroke-miterlimit:4;stroke-dasharray:none;stroke-opacity:1" />
    <path
       transform="matrix(0.26458333,0,0,0.26458333,56.507439,132.39137)"
       id="path837"
       d="M 11.606653,43.376984 C 14.366536,34.649292 15.27493,27.279651 14.502386,19.88442 14.094617,15.981027 13.0353,11.118733 11.636578,6.730289 11.516431,6.35333 11.42377,6.0420491 11.430665,6.0385535 c 0.0069,-0.0035 0.870349,0.01511 1.918787,0.041346 8.230294,0.2059508 14.748408,1.4232502 19.566725,3.6542108 2.460318,1.1391677 4.31934,2.4050097 5.998795,4.0846867 1.297869,1.298043 2.254838,2.609149 3.054053,4.184242 1.052685,2.074631 1.609578,3.984447 1.973682,6.768572 0.08925,0.682421 -0.294643,2.679222 -0.748641,3.894059 -0.743103,1.988442 -1.87106,3.681398 -3.625311,5.441244 -1.972183,1.978474 -4.108603,3.454747 -7.188052,4.966968 -5.691016,2.794679 -12.678026,4.479186 -20.104728,4.847075 l -0.854726,0.04234 z"
       style="fill:#c8c8c8;fill-opacity:1;stroke:#000000;stroke-width:0.125;stroke-linecap:square;stroke-miterlimit:4;stroke-dasharray:none;stroke-opacity:1" />
    <circle
       r="0.79374999"
       cy="139.00597"
       cx="68.413689"
       id="path1428"
       style="fill:#c8c8c8;fill-opacity:1;stroke:#000000;stroke-width:0.529167;stroke-linecap:square;stroke-miterlimit:4;stroke-dasharray:none;stroke-opacity:1" />
  </g>
</svg>
